<?xml version="1.0" standalone="no"?>
<!--
  rectangle-intellij-plugin

  Copyright 2024 - Brice Dutheil

  This Source Code Form is subject to the terms of the Mozilla Public
  License, v. 2.0. If a copy of the MPL was not distributed with this
  file, You can obtain one at https://mozilla.org/MPL/2.0/.
-->
<svg version="1.0" xmlns="http://www.w3.org/2000/svg"
     width="16" height="16"
     viewBox="0 0 192 128">
  <rect
          id="screen"
          stroke="#6E6E6E" stroke-width="4"
          fill="none"
          x="2" y="2"
          rx="10"
          width="188" height="124"
  />
  <path d="m 64.907901,30.440548
        c 2.325493,-2.325492 6.102092,-2.325492 8.427585,0 2.325491,2.325492 2.325491,6.102092 0,8.427583
        l -4.725401,4.706797
        h 39.942655
        c 16.44588,0 29.7663,13.320418 29.7663,29.766298 0,16.445881 -13.32042,29.766294 -29.7663,29.766294
        h -6.32534
        c -3.292899,0 -5.953263,-2.66036 -5.953263,-5.953256 0,-3.292896 2.660364,-5.953259 5.953263,-5.953259
        h 6.32534
        c 9.86008,0 17.85977,-7.999692 17.85977,-17.859779 0,-9.860085 -7.99969,-17.85978 -17.85977,-17.85978
        H 68.610085
        l 4.725401,4.725401
        c 2.325491,2.325492 2.325491,6.102091 0,8.427582 -2.325493,2.325493 -6.102092,2.325493 -8.427585,0
        L 50.024754,53.751281
        c -2.325492,-2.325493 -2.325492,-6.102091 0,-8.427583 z" fill="#6E6E6E"/>
</svg>