<?xml version="1.0" standalone="no"?>
<!--
  rectangle-intellij-plugin

  Copyright 2024 - Brice Dutheil

  This Source Code Form is subject to the terms of the Mozilla Public
  License, v. 2.0. If a copy of the MPL was not distributed with this
  file, You can obtain one at https://mozilla.org/MPL/2.0/.
-->
<svg version="1.0" xmlns="http://www.w3.org/2000/svg"
     width="300.000000pt" height="300.000000pt" viewBox="0 0 300.000000 300.000000"
     preserveAspectRatio="xMidYMid meet">
  <g transform="translate(0.000000,300.000000) scale(0.100000,-0.100000)"
     fill="#FFFFFF" stroke="none">
    <path d="M795 2700 c-151 -14 -230 -48 -327 -139 -80 -74 -132 -163 -155 -260
-16 -69 -18 -141 -18 -806 0 -801 0 -796 61 -918 36 -70 142 -178 213 -216
126 -67 116 -66 931 -66 815 0 805 -1 931 66 71 38 177 146 213 216 61 122 61
117 61 918 0 547 -3 745 -13 790 -41 194 -205 363 -397 406 -59 14 -1371 21
-1500 9z m1165 -24 c299 -5 362 -14 454 -64 99 -54 188 -161 233 -282 27 -72
34 -269 31 -920 l-3 -655 -28 -57 c-56 -115 -174 -216 -298 -258 -128 -44
-772 -53 -841 -13 -17 10 -40 31 -52 46 -21 28 -21 30 -24 1045 -2 559 0 1037
3 1061 5 32 16 54 39 77 32 32 32 32 121 28 50 -2 214 -6 365 -8z m-526 -2
c13 -5 13 -10 -2 -47 -15 -39 -17 -129 -17 -1082 l0 -1040 22 -47 c11 -25 31
-52 43 -58 27 -14 644 -14 758 0 117 15 193 45 272 106 47 36 65 46 55 30 -22
-33 -98 -91 -161 -122 -108 -53 -159 -55 -947 -52 -651 4 -728 6 -782 21 -130
38 -250 139 -311 261 l-35 73 0 729 c1 401 4 752 7 779 9 72 32 148 59 198 53
93 190 202 288 228 24 7 188 14 382 18 187 4 343 8 347 9 3 1 13 -1 22 -4z
m806 -2323 c0 -14 -122 -23 -134 -10 -7 8 -7 10 -1 6 8 -4 58 0 128 12 4 0 7
-3 7 -8z m-520 -15 c14 -2 -31 -3 -100 -3 -69 0 -107 3 -85 6 38 6 130 4 185
-3z m253 -3 c-40 -2 -107 -2 -150 0 -43 1 -10 3 72 3 83 0 118 -2 78 -3z"/>
    <path d="M1992 2594 c-59 -24 -51 -106 12 -127 59 -20 113 66 71 113 -23 25
-47 29 -83 14z m70 -21 c30 -27 18 -80 -22 -95 -25 -9 -60 10 -70 38 -22 57
46 99 92 57z"/>
    <path d="M1577 2582 c-26 -29 -22 -77 9 -101 35 -27 59 -26 89 4 29 28 32 61
9 93 -20 28 -83 31 -107 4z m93 -12 c24 -24 25 -38 5 -67 -21 -30 -51 -34 -80
-11 -29 22 -32 53 -8 80 21 24 58 23 83 -2z"/>
    <path d="M1778 2583 c-36 -43 -27 -93 22 -113 56 -23 117 39 89 92 -6 12 -17
26 -23 30 -20 14 -73 8 -88 -9z m86 -9 c34 -34 10 -96 -37 -96 -38 0 -57 19
-57 58 0 50 59 74 94 38z"/>
  </g>
</svg>
