<?xml version="1.0" standalone="no"?>
<!--
  rectangle-intellij-plugin

  Copyright 2024 - Brice Dutheil

  This Source Code Form is subject to the terms of the Mozilla Public
  License, v. 2.0. If a copy of the MPL was not distributed with this
  file, You can obtain one at https://mozilla.org/MPL/2.0/.
-->
<svg version="1.0" xmlns="http://www.w3.org/2000/svg"
     width="192" height="128"
     viewBox="0 0 192 128">
  <!-- Replace by width="16 height="16" -->
  <rect
          id="screen"
          stroke="#6E6E6E" stroke-width="4"
          fill="#6E6E6E"
          x="2" y="2"
          rx="10"
          width="188" height="124"
  />

  <!-- Halves -->
  <!--  <rect id="top-half" x="4" y="4" width="184" height="60" rx="10" fill="black"/>-->
  <!--  <rect id="bottom-half" x="4" y="64" width="184" height="60" rx="10" fill="black"/>-->
  <!--  <rect id="left-half" x="4" y="4" width="92" height="120" rx="10" fill="black"/>-->
  <!--  <rect id="right-half" x="96" y="4" width="92" height="120" rx="10" fill="black"/>-->
  <!--  <rect id="center-half" x="50" y="4" width="92" height="120" rx="10" fill="black"/>-->

  <!-- Corners -->
  <!--  <rect id="top-left-quarter" x="4" y="4" width="92" height="60" rx="10" fill="black"/>-->
  <!--  <rect id="top-right-quarter" x="96" y="4" width="92" height="60" rx="10" fill="black"/>-->
  <!--  <rect id="bottom-left-quarter" x="4" y="64" width="92" height="60" rx="10" fill="black"/>-->
  <!--  <rect id="bottom-right-quarter" x="96" y="64" width="92" height="60" rx="10" fill="black"/>-->

  <!-- Thirds -->
  <!--  <rect id="first-third" x="4" y="4" width="60" height="120" rx="10" fill="black"/>-->
  <!--  <rect id="center-third" x="66" y="4" width="60" height="120" rx="10" fill="black"/>-->
  <!--  <rect id="last-third" x="128" y="4" width="60" height="120" rx="10" fill="black"/>-->
  <!--  <rect id="first-two-thirds" x="4" y="4" width="120" height="120" rx="10" fill="black"/>-->
  <!--  <rect id="last-two-thirds" x="68" y="4" width="120" height="120" rx="10" fill="black"/>-->

  <!--  <rect id="top-left-two-thirds" x="4" y="4" width="120" height="60" rx="10" fill="black"/>-->
  <!--  <rect id="bottom-left-thirds" x="4" y="64" width="120" height="60" rx="10" fill="black"/>-->
  <!--  <rect id="top-right-two-thirds" x="68" y="4" width="120" height="60" rx="10" fill="black"/>-->
  <!--  <rect id="bottom-right-two-thirds" x="68" y="64" width="120" height="60" rx="10" fill="black"/>-->

  <!-- Fourth -->
  <!--  <rect id="first-fourth" x="4" y="4" width="46" height="120" rx="10" fill="black"/>-->
  <!--  <rect id="second-fourth" x="50" y="4" width="46" height="120" rx="10" fill="black"/>-->
  <!--  <rect id="third-fourth" x="96" y="4" width="46" height="120" rx="10" fill="black"/>-->
  <!--  <rect id="last-fourth" x="142" y="4" width="46" height="120" rx="10" fill="black"/>-->
  <!--  <rect id="first-three-fourths" x="4" y="4" width="138" height="120" rx="10" fill="black"/>-->
  <!--  <rect id="last-three-fourths" x="50" y="4" width="138" height="120" rx="10" fill="black"/>-->

  <!-- Sixth -->
  <!--  <rect id="top-left-sixth" x="4" y="4" width="60" height="60" rx="10" fill="black"/>-->
  <!--  <rect id="top-center-sixth" x="66" y="4" width="60" height="60" rx="10" fill="black"/>-->
  <!--  <rect id="top-right-sixth" x="128" y="4" width="60" height="60" rx="10" fill="black"/>-->
  <!--  <rect id="bottom-left-sixth" x="4" y="64" width="60" height="60" rx="10" fill="black"/>-->
  <!--  <rect id="bottom-center-sixth" x="66" y="64" width="60" height="60" rx="10" fill="black"/>-->
  <!--  <rect id="bottom-right-sixth" x="128" y="64" width="60" height="60" rx="10" fill="black"/>-->

  <!-- Move to edge -->
  <!--  <rect id="move-up" x="42" y="4" width="110" height="60" rx="10" fill="black"/>-->
  <!--  <rect id="move-down" x="42" y="64" width="110" height="60" rx="10" fill="black"/>-->
  <!--  <rect id="move-left" x="4" y="32" width="60" height="60" rx="10" fill="black"/>-->
  <!--  <rect id="move-right" x="78" y="32" width="110" height="60" rx="10" fill="black"/>-->

  <!-- Display -->
  <!--  <path id="previous-display" d="M 78 0 l -35 64 l 35 64 l 62 0 l -35 -64 l 35 -64 l -62 0 Z" fill="black"/>-->
  <!--  <path id="next-display" d="m 105,0 35,64 -35,64 H 43 L 78,64 43,0 Z" fill="black"/>-->


  <!-- Maximize -->
  <!--  <rect id="maximize" x="4" y="4" width="184" height="120" rx="10" fill="black"/>-->

  <!-- Almost Maximize -->
  <!--  <rect id="almost-maximize" x="10" y="10" width="172" height="108" rx="10" fill="black"/>-->

  <!-- Maximize Height -->
  <!--  <rect id="maximize-height" x="36" y="4" width="90" height="120" rx="10" fill="black"/>-->

  <!-- Smaller (like a minus sign) -->
  <!--  <rect id="smaller" x="51" y="57" width="90" height="14" rx="7" fill="black"/>-->

  <!-- Larger  (like a plus sign) -->
  <!--  <rect id="larger-horizontal-bar" x="51" y="57" width="90" height="14" rx="7" fill="black"/>-->
  <!--  <rect id="larger-vertical-bar" x="89" y="19" width="14" height="90" rx="7" fill="black"/>-->

  <!-- Centre -->
  <!--  <rect id="center" x="34" y="30" width="124" height="64" rx="10" fill="black"/>-->

  <!-- Restore -->
  <!--  <path d="m 64.907901,30.440548-->
  <!--        c 2.325493,-2.325492 6.102092,-2.325492 8.427585,0 2.325491,2.325492 2.325491,6.102092 0,8.427583-->
  <!--        l -4.725401,4.706797-->
  <!--        h 39.942655-->
  <!--        c 16.44588,0 29.7663,13.320418 29.7663,29.766298 0,16.445881 -13.32042,29.766294 -29.7663,29.766294-->
  <!--        h -6.32534-->
  <!--        c -3.292899,0 -5.953263,-2.66036 -5.953263,-5.953256 0,-3.292896 2.660364,-5.953259 5.953263,-5.953259-->
  <!--        h 6.32534-->
  <!--        c 9.86008,0 17.85977,-7.999692 17.85977,-17.859779 0,-9.860085 -7.99969,-17.85978 -17.85977,-17.85978-->
  <!--        H 68.610085-->
  <!--        l 4.725401,4.725401-->
  <!--        c 2.325491,2.325492 2.325491,6.102091 0,8.427582 -2.325493,2.325493 -6.102092,2.325493 -8.427585,0-->
  <!--        L 50.024754,53.751281-->
  <!--        c -2.325492,-2.325493 -2.325492,-6.102091 0,-8.427583 z" fill="black"/>-->

  <!-- Cascade app windows -->
  <rect id="window-back" x="20" y="20" width="100" height="60" rx="10" fill="none" stroke="black" stroke-width="8"/>
  <rect id="window-middle" x="36" y="36" width="100" height="60" rx="10" fill="none" stroke="black" stroke-width="8"/>
  <rect id="window-front" x="52" y="52" width="100" height="60" rx="10" fill="black" stroke="black" stroke-width="8"/>

  
</svg>